<?xml version="1.0" encoding="UTF-8"?>
<svg width="20px" height="19px" viewBox="0 0 20 19" version="1.1" xmlns="http://www.w3.org/2000/svg" xmlns:xlink="http://www.w3.org/1999/xlink">
    <title>形状</title>
    <g id="提问" stroke="none" stroke-width="1" fill="none" fill-rule="evenodd">
        <g id="画板" transform="translate(-3590.000000, -2365.000000)" fill="#126EE3" fill-rule="nonzero">
            <g id="编组-12备份-8" transform="translate(3259.000000, 1325.000000)">
                <g id="编组-23" transform="translate(47.000000, 732.000000)">
                    <g id="fasong-5备份-2" transform="translate(284.000000, 308.000000)">
                        <path d="M4.73284493,8.90416223 L10.6092796,8.90416223 C10.9843712,8.90416223 11.2344322,9.15910036 11.2344322,9.54150755 C11.2344322,9.92391474 10.9843712,10.1788529 10.6092796,10.1788529 L4.73284493,10.1788529 C4.73284493,10.3063219 4.6078144,10.433791 4.60781441,10.6887291 L1.23199024,17.8269967 L18.7362637,9.54150755 L1.23199024,1.25601842 L4.60781441,8.39428597 C4.73284495,8.6492241 4.73284495,8.77669316 4.73284493,8.90416223 Z M19.2363858,10.6887291 L1.73211233,18.9742182 C1.10695971,19.2291564 0.356776557,18.9742182 0.106715513,18.3368729 C-0.0183150183,17.9544657 -0.0183150183,17.5720586 0.106715513,17.1896514 L3.48253969,10.0513838 C3.60757022,9.66897662 3.60757022,9.28656943 3.48253969,8.90416223 L0.106715513,1.76589466 C-0.143345549,1.12854935 0.106715513,0.363734965 0.731868132,0.108796844 C0.981929176,-0.0186722261 1.48205128,-0.0186722261 1.73211233,0.108796844 L19.2363858,8.39428597 C19.8615385,8.6492241 20.1115995,9.41403848 19.8615385,10.0513838 C19.7365079,10.3063219 19.4864469,10.5612601 19.2363858,10.6887291 Z" id="形状"></path>
                    </g>
                </g>
            </g>
        </g>
    </g>
</svg>