<?xml version="1.0" encoding="utf-8"?>
<!-- Generator: Adobe Illustrator 22.0.0, SVG Export Plug-In . SVG Version: 6.00 Build 0)  -->
<svg version="1.1" id="图层_1" xmlns="http://www.w3.org/2000/svg" xmlns:xlink="http://www.w3.org/1999/xlink" x="0px" y="0px"
	 viewBox="0 0 200 200">
<path d="M177.66 80.7h-3.33V55.04c0-9.93-8.07-18-18-18H95.01a8.17 8.17 0 01-4.9-2.42L75.8 16.1C72.66 12 66.6 9 61.42 9H28.82c-13.23 0-24 10.77-24 23.96l-1 137.82c-1.5 10.34 6.41 20.55 17.84 20.55H133.1a18 18 0 0015.71-9.22l44.57-74.64c6.7-12-1.97-26.78-15.72-26.78zM28.83 21H61.4a8.17 8.17 0 014.91 2.42L80.6 41.96c3.17 4.1 9.23 7.09 14.42 7.09h61.32a6 6 0 016 6v25.64h-96.1a18 18 0 00-15.7 9.23L16 147.72 16.83 33c0-6.61 5.39-12 12-12zm154.14 80.5l-44.46 74.46-.09.15-.08.15a6 6 0 01-5.24 3.07H21.67a5.9 5.9 0 01-5.18-2.96 5.9 5.9 0 01-.12-5.85l44.45-74.45.1-.15.08-.15a6 6 0 015.24-3.08h111.42a5.9 5.9 0 015.18 2.97 5.9 5.9 0 01.13 5.84z"/>
</svg>
