<svg width="200" height="200" viewBox="0 0 200 200" fill="none" xmlns="http://www.w3.org/2000/svg">
<path d="M24.9219 99.2773C24.9219 119.122 32.8051 138.154 46.8374 152.186C60.8696 166.218 79.9015 174.102 99.7461 174.102C119.591 174.102 138.623 166.218 152.655 152.186C166.687 138.154 174.57 119.122 174.57 99.2773C174.57 79.4327 166.687 60.4009 152.655 46.3686C138.623 32.3364 119.591 24.4531 99.7461 24.4531C79.9015 24.4531 60.8696 32.3364 46.8374 46.3686C32.8051 60.4009 24.9219 79.4327 24.9219 99.2773Z" fill="#E5EEFF"/>
<path d="M43.3789 136.191C43.125 133.379 42.3047 130.645 40.9375 128.164C39.5508 130.605 38.7109 133.32 38.457 136.133C35.5078 136.367 32.6562 137.227 30.0586 138.652C32.6367 140.078 35.5078 140.938 38.457 141.152C38.7109 143.945 39.6094 149.668 40.9961 152.129C42.3828 149.668 43.1836 143.926 43.4375 141.094C46.1328 140.801 48.75 139.98 51.1328 138.652C48.7305 137.324 46.0938 136.484 43.3789 136.191Z" fill="#779EEA"/>
<path d="M153.574 42.9102L145.488 51.3281L154.16 59.2578L162.812 51.3281L153.574 42.9102Z" fill="white"/>
<path d="M147.402 51.1719C150.371 52.5195 152.812 54.8242 154.238 57.7149C155.684 54.8438 158.105 52.5195 161.074 51.1719C158.105 49.8242 155.664 47.5195 154.238 44.6289C152.812 47.5 150.391 49.8242 147.402 51.1719ZM140.117 51.1719V51.0938C140.117 50.3516 140.723 49.7461 141.465 49.7461C147.324 49.7461 152.148 45.5078 152.91 40.0195C152.852 39.5313 152.832 39.0234 152.832 38.5352C152.832 37.793 153.438 37.1875 154.18 37.1875H154.375C155.117 37.1875 155.723 37.793 155.723 38.5352C155.723 39.043 155.703 39.5313 155.645 40.0195C156.387 45.5078 161.23 49.7461 167.09 49.7461C167.832 49.7461 168.438 50.3516 168.438 51.0938V51.25C168.438 51.9922 167.832 52.5977 167.09 52.5977C161.23 52.5977 156.406 56.8359 155.645 62.3242C155.703 62.8125 155.723 63.3203 155.723 63.8086C155.723 64.5508 155.117 65.1563 154.375 65.1563H154.18C153.438 65.1563 152.832 64.5508 152.832 63.8086C152.832 63.3008 152.852 62.8125 152.91 62.3242C152.168 56.8359 147.324 52.5977 141.465 52.5977C140.723 52.5977 140.117 51.9922 140.117 51.25V51.1719ZM59.1992 43.7695C55.4883 38.6524 48.1445 37.6172 42.8125 41.5039C37.4805 45.3906 36.1914 52.6758 39.9023 57.793C43.6133 62.9102 50.957 63.9453 56.2891 60.0586C61.6211 56.1719 62.9102 48.8867 59.1992 43.7695ZM61.3672 42.1875C65.9766 48.5156 64.3945 57.4805 57.8711 62.2266C51.3477 66.9727 42.3438 65.7031 37.7344 59.3555C33.125 53.0078 34.707 44.0625 41.2305 39.3164C47.7539 34.5703 56.7773 35.8594 61.3672 42.1875Z" fill="#779EEA"/>
<path d="M55.1954 39.5898L54.1017 37.1289C61.1134 33.9648 66.7774 33.5156 69.0431 36.6211C72.3439 41.1719 65.879 50.6445 55.1564 58.4375C44.4337 66.2304 33.4181 69.4531 30.1173 64.9023C27.8517 61.7773 30.0782 56.4844 35.3126 50.7422L37.3048 52.5586C32.8712 57.4219 31.0743 61.6601 32.2853 63.3203C34.2774 66.0547 44.004 63.2226 53.5743 56.25C63.1446 49.2969 68.8478 40.9179 66.8751 38.1836C65.6446 36.5625 61.1329 36.914 55.1954 39.5898ZM172.402 95.2344L169.59 103.926C169.57 103.984 169.512 104.004 169.473 103.984C169.434 103.965 169.414 103.945 169.414 103.926L166.914 95.1367L158.203 92.3242C158.145 92.3047 158.125 92.2461 158.145 92.207C158.164 92.1679 158.184 92.1484 158.203 92.1484L166.992 89.6484L169.805 80.957C169.824 80.8984 169.883 80.8789 169.922 80.8984C169.961 80.918 169.981 80.9375 169.981 80.957L172.481 89.7461L181.172 92.5586C181.231 92.5781 181.25 92.6367 181.231 92.6758C181.211 92.7148 181.191 92.7344 181.172 92.7344L172.402 95.2344Z" fill="#779EEA"/>
<path d="M83.5938 139.336C82.9883 138.828 50.9376 163.359 65.8399 171.035C72.7149 174.59 75.4493 166.387 76.504 160.039C77.2462 155.645 79.6485 151.387 83.086 148.418L89.2383 143.086" fill="white"/>
<path d="M83.8672 140.645C83.8477 140.645 83.8282 140.664 83.8086 140.684C83.5743 140.82 83.2422 141.035 82.8125 141.328C81.875 141.992 80.6446 142.949 79.3164 144.023C75.9766 146.758 72.6368 149.922 69.9024 153.008C66.543 156.797 64.3164 160.273 63.5352 163.125C62.6953 166.191 63.5352 168.34 66.4454 169.844C68.9844 171.152 70.7422 170.625 72.2461 168.477C73.5743 166.563 74.5508 163.516 75.1758 159.824C75.9766 155.117 78.5352 150.586 82.2071 147.422L88.3594 142.09C88.9258 141.602 89.7657 141.66 90.2539 142.227C90.7422 142.793 90.6836 143.633 90.1172 144.121L83.9649 149.453C80.7618 152.227 78.5157 156.191 77.8321 160.273C77.1485 164.336 76.0743 167.715 74.4532 170.02C72.2071 173.242 69.0039 174.18 65.2149 172.227C61.1328 170.117 59.7852 166.66 60.9375 162.422C61.8555 159.082 64.2774 155.293 67.8907 151.23C70.7227 148.027 74.1797 144.785 77.6172 141.953C82.0313 138.32 83.3789 137.383 84.4727 138.301C85.0391 138.789 85.1172 139.629 84.6289 140.195C84.4141 140.43 84.1407 140.586 83.8672 140.645Z" fill="#779EEA"/>
<path d="M113.75 139.512C119.18 141.465 145.215 162.324 134.063 168.828C127.93 172.402 124.238 166.25 122.363 159.395C120.605 152.93 110.02 146.055 110.02 146.055" fill="white"/>
<path d="M113.301 140.781C112.598 140.527 112.246 139.766 112.5 139.062C112.754 138.359 113.516 138.008 114.219 138.262C117.598 139.492 125.762 145.762 131.133 151.562C138.594 159.629 140.84 166.465 134.746 170C128.301 173.75 123.594 169.004 121.074 159.746C120.996 159.434 120.879 159.121 120.742 158.809C119.863 156.719 117.988 154.395 115.41 151.992C114.082 150.762 112.637 149.59 111.191 148.516C110.684 148.145 110.215 147.812 109.805 147.52C109.551 147.344 109.375 147.227 109.297 147.168C108.672 146.758 108.496 145.937 108.906 145.312C109.316 144.687 110.137 144.512 110.762 144.922C110.879 145 111.055 145.117 111.328 145.312C111.777 145.625 112.266 145.977 112.793 146.367C114.297 147.48 115.82 148.711 117.226 150.02C120.078 152.656 122.168 155.254 123.223 157.773C123.398 158.203 123.555 158.613 123.652 159.043C125.762 166.836 129.082 170.176 133.379 167.676C137.226 165.43 135.547 160.332 129.141 153.379C124.043 147.871 116.191 141.836 113.301 140.781Z" fill="#779EEA"/>
<path d="M110.215 76.0742C132.227 78.7891 136.523 88.9258 136.504 98.7695V104.785C136.504 116.426 130.645 128.145 97.5391 128.125C66.0938 128.105 59.9219 116.543 59.9415 104.902V98.5937C59.9415 88.4375 64.668 78.3008 86.836 75.8984" fill="#F9F9F9"/>
<path d="M110.059 77.4023L110.391 74.7266C130.156 77.168 137.871 85.4492 137.871 98.7695V104.785C137.832 120.82 126.758 129.492 97.5391 129.473C69.6094 129.453 58.5742 120.684 58.5938 104.902V98.5938C58.5938 85.1172 66.6797 76.7188 86.6797 74.5703L86.9727 77.2461C68.2813 79.2578 61.2891 86.5234 61.2891 98.5938V104.902C61.2696 119.062 70.9766 126.758 97.5586 126.777C125.391 126.797 135.156 119.18 135.156 104.785V98.7695C135.176 86.8555 128.496 79.6875 110.059 77.4023Z" fill="#779EEA"/>
<path d="M87.2852 76.8555V75.4492C87.2852 72.0117 90.0586 70.8203 93.6914 70.5664C95.0586 70.4687 96.6797 70.4102 98.6328 70.4102C100.801 70.4102 102.598 70.4883 104.082 70.6055C107.676 70.8984 109.941 72.0117 110.371 75.4883V77.0898" fill="white"/>
<path d="M103.984 71.9531C102.422 71.8164 100.645 71.7578 98.6328 71.7578C96.7969 71.7578 95.1953 71.8164 93.7695 71.9141C90.1953 72.168 88.6328 73.2031 88.6133 75.4492V81.7187H85.918V75.4492C85.918 71.4453 88.7695 69.5703 93.5547 69.2383C95.0391 69.1406 96.6992 69.082 98.5937 69.082C100.664 69.082 102.52 69.1602 104.16 69.2969C108.691 69.668 111.172 71.4062 111.68 75.3516L111.699 75.5273V81.9922H109.004V75.625C108.691 73.1641 107.344 72.2266 103.984 71.9531Z" fill="#779EEA"/>
<path d="M106.719 81.3477V77.4219C106.426 75.1172 104.863 74.375 102.422 74.1992C101.406 74.1211 100.176 74.0625 98.6915 74.0625C97.3634 74.0625 96.2306 74.1016 95.3126 74.1602C92.8321 74.3359 90.9376 75.1172 90.9376 77.3828V81.3281C93.8477 81.3477 99.1212 81.3477 106.719 81.3477ZM107.344 84.3359C104.434 83.9844 101.152 83.7891 97.4024 83.7891C72.6954 83.7695 67.8321 92.8711 67.8321 101.953V106.895C67.8321 116.016 72.6759 125.059 97.3829 125.078C123.399 125.098 127.988 115.918 128.008 106.816V102.109C128.008 94.3945 124.649 86.4648 107.344 84.3359ZM75.0073 166.801C74.4995 166.801 74.0308 166.527 73.7964 166.039C73.7183 165.863 73.6401 165.688 73.562 165.492C73.1128 164.281 72.4878 162.641 68.894 163.324C68.1518 163.461 67.4292 162.973 67.2925 162.23C67.1558 161.488 67.644 160.766 68.3862 160.629C74.2261 159.516 75.6518 163.285 76.1206 164.516C76.1597 164.613 76.2183 164.77 76.2378 164.809C76.5698 165.492 76.2964 166.312 75.6128 166.645C75.4175 166.742 75.2026 166.801 75.0073 166.801Z" fill="#779EEA"/>
<path d="M98.5352 136.152C86.7969 136.152 80.7422 139.727 80.7227 148.281C80.7227 153.652 82.9688 163.438 86.2109 171.426C86.4258 171.973 86.6602 172.5 86.875 173.008C91.0547 173.73 95.3516 174.102 99.7461 174.102C103.203 174.102 106.621 173.867 109.961 173.418C110.254 172.773 110.527 172.129 110.801 171.445C114.062 163.457 116.328 153.691 116.328 148.32C116.328 139.746 110.273 136.152 98.5352 136.152Z" fill="white"/>
<path d="M129.648 49.4531L127.871 55.2929C127.871 55.3125 127.852 55.332 127.832 55.3125C127.813 55.3125 127.813 55.2929 127.813 55.2929L126.035 49.4531L120.195 47.6758C120.176 47.6758 120.156 47.6562 120.176 47.6367C120.176 47.6172 120.195 47.6172 120.195 47.6172L126.035 45.8398L127.813 40C127.813 39.9804 127.832 39.9609 127.852 39.9804C127.871 39.9804 127.871 40 127.871 40L129.648 45.8398L135.488 47.6172C135.508 47.6172 135.527 47.6367 135.508 47.6562C135.508 47.6758 135.488 47.6758 135.488 47.6758L129.648 49.4531Z" fill="white"/>
<path d="M107.148 173.73C109.59 168.594 111.875 161.504 114.023 152.422C109.336 162.539 105.43 169.746 102.305 174.043C103.926 173.984 105.547 173.887 107.148 173.73Z" fill="#E5EEFF"/>
<path d="M98.5352 133.457C85.5078 133.457 78.0469 137.852 78.0273 148.262C78.0273 154.004 80.3516 164.082 83.6914 172.363C84.7461 172.598 85.8008 172.793 86.875 172.988C86.6602 172.48 86.4258 171.953 86.2109 171.406C82.9687 163.418 80.7227 153.652 80.7227 148.262C80.7227 139.707 86.7969 136.133 98.5352 136.133C110.273 136.133 116.328 139.727 116.328 148.281C116.328 153.652 114.062 163.418 110.801 171.406C110.527 172.09 110.234 172.734 109.961 173.379C111.016 173.242 112.07 173.066 113.105 172.891C113.164 172.734 113.242 172.578 113.301 172.422C116.68 164.141 119.023 154.043 119.023 148.281C119.023 137.891 111.562 133.477 98.5352 133.457Z" fill="#779EEA"/>
<path d="M90.3516 150.527V151.035C90.3516 158.184 95.1953 170.957 98.8867 170.957C102.578 170.957 107.422 158.203 107.422 151.055V150.547H109.531V151.055C109.531 159.16 104.238 173.145 98.8867 173.145C93.5352 173.145 88.2422 159.16 88.2422 151.055V150.547H90.3516V150.527Z" fill="#779EEA"/>
<path d="M97.9102 112.324C93.7109 112.324 90.3125 108.926 90.3125 104.727C90.3125 100.527 93.7109 97.1289 97.9102 97.1289C102.109 97.1289 105.508 100.527 105.508 104.727C105.508 108.926 102.109 112.324 97.9102 112.324Z" fill="white"/>
<path d="M100.703 145.625V144.609C100.703 143.672 100.078 143.438 99.7656 143.438H97.207C96.8945 143.438 96.2305 143.77 96.2305 144.609V145.547L87.5977 143.652C87.0508 143.535 86.6602 143.887 86.6992 144.355L87.1289 150.879C87.168 151.621 87.832 152.109 88.6719 151.836L96.25 149.258V150.371C96.25 150.645 96.9141 150.996 97.2266 150.996H100.195C100.508 150.996 100.742 150.469 100.742 150.195V149.141L108.867 151.875C109.707 152.148 110.625 151.66 110.664 150.918L111.016 144.395C111.035 143.926 110.508 143.574 109.961 143.691L100.703 145.625Z" fill="#E5EEFF"/>
</svg>
