<?xml version="1.0" encoding="UTF-8"?>
<svg width="22px" height="24px" viewBox="0 0 22 24" version="1.1" xmlns="http://www.w3.org/2000/svg" xmlns:xlink="http://www.w3.org/1999/xlink">
    <title>MK1-01</title>
    <g id="页面-1" stroke="none" stroke-width="1" fill="none" fill-rule="evenodd">
        <g id="右键" transform="translate(-321.000000, -579.000000)" fill-rule="nonzero">
            <g id="MK1-01" transform="translate(321.000000, 579.000000)">
                <path d="M1.00625,0 L15.93125,0 C16.1809191,0.00128304097 16.4213108,0.0947686945 16.60625,0.2625 L21.43125,4.7375 C21.637096,4.92767881 21.7547897,5.19475292 21.75625,5.475 L21.75625,23 C21.75625,23.5522847 21.3085347,24 20.75625,24 L1.00625,24 C0.45396525,24 0.00625,23.5522847 0.00625,23 L0.00625,1 C0.00625,0.44771525 0.45396525,0 1.00625,0 Z" id="路径" fill="#2ECCD4"></path>
                <polygon id="矩形" fill="#FFFFFF" transform="translate(10.785895, 8.741147) rotate(-61.620000) translate(-10.785895, -8.741147) " points="7.70964509 8.11614732 13.8621451 8.11614732 13.8621451 9.36614732 7.70964509 9.36614732"></polygon>
                <polygon id="路径" fill="#FFFFFF" points="9.02625 6.33 8.19875 5.39375 4.82375 8.38125 4.835 8.39375 4.75125 8.47 7.65125 11.6575 8.575 10.81625 6.515 8.5525"></polygon>
                <polygon id="路径" fill="#FFFFFF" points="17.22 8.58625 13.9975 5.58 13.145 6.49375 15.46875 8.66125 13.33125 11.01 14.25625 11.85125 17.15625 8.66375 17.15125 8.66"></polygon>
                <rect id="矩形" fill="#FFFFFF" x="4.9" y="14.18125" width="12.025" height="1.305"></rect>
                <rect id="矩形" fill="#FFFFFF" x="4.86875" y="17.8375" width="12.025" height="1.305"></rect>
            </g>
        </g>
    </g>
</svg>