<svg width="144" height="144" viewBox="0 0 144 144" fill="none" xmlns="http://www.w3.org/2000/svg">
<g clip-path="url(#clip0_168_1481)">
<path fill-rule="evenodd" clip-rule="evenodd" d="M103.977 104.529C103.709 107.595 101.136 110 98 110H47C43.7667 110 41.1307 107.442 41.0047 104.24C20.4243 110.175 4.86068 121.839 -0.566895 136H144.567C139.226 122.065 124.07 110.548 103.977 104.529ZM61.6021 100.453L61.6981 100.477L61.8641 100.431C61.7767 100.438 61.6894 100.446 61.6021 100.453Z" fill="url(#paint0_linear_168_1481)"/>
<path d="M65.5142 98.4982L62.1912 97.7959L58.1582 94.8434L57.7536 94.5472L57.2742 94.6943L52.3735 96.1978L47.4976 91.9092L47.1652 91.6168L46.7252 91.6663L42 92.1987V42C42 39.2386 44.2386 37 47 37H87.5493L103 48.3874V104C103 106.761 100.761 109 98 109H47C44.2386 109 42 106.761 42 104V98.0749L47.1567 97.1424L51.4292 101.371L51.815 101.753L52.3454 101.637L57.5557 100.503L61.4628 101.449L61.715 101.51L61.9651 101.44L65.5744 100.44L65.5142 98.4982Z" stroke="#779EEA" stroke-width="2"/>
<path d="M87 37V49H102.203" stroke="#779EEA" stroke-width="2"/>
<rect x="57" y="56" width="20" height="2" fill="#779EEA"/>
<rect x="57" y="64.5" width="32" height="2" fill="#779EEA"/>
<rect x="57" y="73" width="32" height="2" fill="#779EEA"/>
<path fill-rule="evenodd" clip-rule="evenodd" d="M37.6443 13.6443C37.3428 13.3428 36.854 13.3428 36.5526 13.6443L34.0962 16.1007L31.6398 13.6443C31.3383 13.3428 30.8496 13.3428 30.5481 13.6443C30.2466 13.9458 30.2466 14.4345 30.5481 14.736L33.0045 17.1924L30.5481 19.6488C30.2466 19.9502 30.2466 20.439 30.5481 20.7405C30.8496 21.042 31.3383 21.042 31.6398 20.7405L34.0962 18.2841L36.5526 20.7405C36.854 21.042 37.3428 21.042 37.6443 20.7405C37.9458 20.439 37.9458 19.9502 37.6443 19.6488L35.1879 17.1924L37.6443 14.736C37.9458 14.4345 37.9458 13.9458 37.6443 13.6443Z" fill="#779EEA"/>
<path opacity="0.3" fill-rule="evenodd" clip-rule="evenodd" d="M118.523 50.841C118.327 50.6449 118.009 50.6449 117.813 50.841L115.682 52.9717L113.551 50.841C113.355 50.6449 113.037 50.6449 112.841 50.841C112.645 51.0371 112.645 51.3551 112.841 51.5512L114.972 53.682L112.841 55.8127C112.645 56.0089 112.645 56.3268 112.841 56.523C113.037 56.7191 113.355 56.7191 113.551 56.523L115.682 54.3922L117.813 56.523C118.009 56.7191 118.327 56.7191 118.523 56.523C118.719 56.3268 118.719 56.0089 118.523 55.8127L116.392 53.682L118.523 51.5512C118.719 51.3551 118.719 51.0371 118.523 50.841Z" fill="#779EEA"/>
<path opacity="0.3" fill-rule="evenodd" clip-rule="evenodd" d="M29.5229 62.5983C29.3267 62.4022 29.0088 62.4022 28.8126 62.5983L26.6819 64.7291L24.5511 62.5983C24.355 62.4022 24.037 62.4022 23.8409 62.5983C23.6448 62.7944 23.6448 63.1124 23.8409 63.3086L25.9716 65.4393L23.8409 67.57C23.6448 67.7662 23.6448 68.0842 23.8409 68.2803C24.037 68.4764 24.355 68.4764 24.5511 68.2803L26.6819 66.1496L28.8126 68.2803C29.0088 68.4764 29.3267 68.4764 29.5229 68.2803C29.719 68.0842 29.719 67.7662 29.5229 67.57L27.3921 65.4393L29.5229 63.3086C29.719 63.1124 29.719 62.7944 29.5229 62.5983Z" fill="#779EEA"/>
<path opacity="0.3" fill-rule="evenodd" clip-rule="evenodd" d="M59.3409 23.7049C59.1573 23.5213 58.8597 23.5213 58.6761 23.7049L56.6819 25.6992L54.6876 23.7049C54.5041 23.5213 54.2064 23.5213 54.0229 23.7049C53.8393 23.8885 53.8393 24.1861 54.0229 24.3697L56.0171 26.3639L54.0229 28.3582C53.8393 28.5417 53.8393 28.8394 54.0229 29.0229C54.2064 29.2065 54.5041 29.2065 54.6876 29.0229L56.6819 27.0287L58.6761 29.0229C58.8597 29.2065 59.1573 29.2065 59.3409 29.0229C59.5245 28.8394 59.5245 28.5417 59.3409 28.3582L57.3466 26.3639L59.3409 24.3697C59.5245 24.1861 59.5245 23.8885 59.3409 23.7049Z" fill="#779EEA"/>
<circle opacity="0.6" cx="81" cy="24" r="2" stroke="#779EEA"/>
<circle cx="22.5" cy="84.5" r="1.5" stroke="#779EEA"/>
<circle cx="122.5" cy="83.5" r="1.5" stroke="#779EEA"/>
<path fill-rule="evenodd" clip-rule="evenodd" d="M128.882 31.8818C128.55 31.5501 128.012 31.5501 127.68 31.8818L125.278 34.2841L122.876 31.8818C122.544 31.5501 122.006 31.5501 121.675 31.8818C121.343 32.2134 121.343 32.7512 121.675 33.0829L124.077 35.4853L121.675 37.8877C121.343 38.2194 121.343 38.7572 121.675 39.0889C122.006 39.4206 122.544 39.4206 122.876 39.0889L125.278 36.6865L127.68 39.0889C128.012 39.4206 128.55 39.4206 128.882 39.0889C129.213 38.7572 129.213 38.2194 128.882 37.8877L126.479 35.4853L128.882 33.0829C129.213 32.7512 129.213 32.2134 128.882 31.8818Z" fill="#779EEA"/>
<path fill-rule="evenodd" clip-rule="evenodd" d="M99.3034 27.7678C99.1081 27.5725 98.7916 27.5725 98.5963 27.7678L97.5356 28.8284L96.475 27.7678C96.2797 27.5725 95.9631 27.5725 95.7679 27.7678C95.5726 27.963 95.5726 28.2796 95.7679 28.4749L96.8285 29.5355L95.7679 30.5962C95.5726 30.7915 95.5726 31.108 95.7679 31.3033C95.9631 31.4986 96.2797 31.4986 96.475 31.3033L97.5356 30.2426L98.5963 31.3033C98.7916 31.4986 99.1081 31.4986 99.3034 31.3033C99.4987 31.108 99.4987 30.7915 99.3034 30.5962L98.2428 29.5355L99.3034 28.4749C99.4987 28.2796 99.4987 27.963 99.3034 27.7678Z" fill="#779EEA"/>
<path fill-rule="evenodd" clip-rule="evenodd" d="M20.364 37.1213C20.1687 36.9261 19.8522 36.9261 19.6569 37.1213L18.2427 38.5355L16.8285 37.1213C16.6332 36.9261 16.3166 36.9261 16.1214 37.1213C15.9261 37.3166 15.9261 37.6332 16.1214 37.8284L17.5356 39.2426L16.1214 40.6569C15.9261 40.8521 15.9261 41.1687 16.1214 41.364C16.3166 41.5592 16.6332 41.5592 16.8285 41.364L18.2427 39.9497L19.6569 41.364C19.8522 41.5592 20.1687 41.5592 20.364 41.364C20.5593 41.1687 20.5593 40.8521 20.364 40.6569L18.9498 39.2426L20.364 37.8284C20.5593 37.6332 20.5593 37.3166 20.364 37.1213Z" fill="#779EEA"/>
</g>
<defs>
<linearGradient id="paint0_linear_168_1481" x1="-13.4172" y1="101.801" x2="-13.4172" y2="143.669" gradientUnits="userSpaceOnUse">
<stop stop-color="#779EEA" stop-opacity="0.4"/>
<stop offset="1" stop-color="white" stop-opacity="0.01"/>
</linearGradient>
<clipPath id="clip0_168_1481">
<rect width="144" height="144" fill="white"/>
</clipPath>
</defs>
</svg>
