<?xml version="1.0" encoding="UTF-8"?>
<svg width="22px" height="24px" viewBox="0 0 22 24" version="1.1" xmlns="http://www.w3.org/2000/svg" xmlns:xlink="http://www.w3.org/1999/xlink">
    <title>6-06</title>
    <g id="页面-1" stroke="none" stroke-width="1" fill="none" fill-rule="evenodd">
        <g id="右键" transform="translate(-321.000000, -628.000000)" fill-rule="nonzero">
            <g id="6-06" transform="translate(321.000000, 628.000000)">
                <path d="M1,0 L15.925,0 C16.1746691,0.00128304097 16.4150608,0.0947686945 16.6,0.2625 L21.425,4.7375 C21.630846,4.92767881 21.7485397,5.19475292 21.75,5.475 L21.75,23 C21.75,23.5522847 21.3022847,24 20.75,24 L1,24 C0.44771525,24 0,23.5522847 0,23 L0,1 C0,0.44771525 0.44771525,0 1,0 Z" id="路径" fill="#68C869"></path>
                <polygon id="路径" fill="#FFFFFF" points="15.82875 9.35 15.82875 6.27375 14.37875 6.27375 14.37875 9.35 13.60625 9.35 15.105 11.94625 16.6025 9.35"></polygon>
                <polygon id="路径" fill="#FFFFFF" points="10.555 6.255 10.55375 6.25375 10.5525 6.255 10.55125 6.255 10.55125 6.25625 8.40375 8.405 6.25375 6.25625 6.25375 6.25375 6.2525 6.25375 6.25125 6.2525 6.25 6.25375 4.86 6.25375 4.86 11.945 6.25375 11.945 6.25375 8.26 8.40125 10.4075 8.4025 10.40625 8.40375 10.40875 10.55125 8.26125 10.55125 11.94625 11.94625 11.94625 11.94625 6.255"></polygon>
                <rect id="矩形" fill="#FFFFFF" x="4.86" y="13.95375" width="12.03125" height="1"></rect>
                <rect id="矩形" fill="#FFFFFF" x="4.86" y="16.72625" width="12.03125" height="1"></rect>
            </g>
        </g>
    </g>
</svg>