<?xml version="1.0" encoding="UTF-8"?>
<svg width="20px" height="20px" viewBox="0 0 20 20" version="1.1" xmlns="http://www.w3.org/2000/svg" xmlns:xlink="http://www.w3.org/1999/xlink">
    <title>形状</title>
    <g id="见解" stroke="none" stroke-width="1" fill="currentColor" fill-rule="evenodd">
        <g id="文档预览-属性" transform="translate(-753.000000, -9.000000)" fill="currentColor" fill-rule="nonzero">
            <path d="M762.957245,9.01943409 C757.475902,9.01943409 753.019434,13.4796331 753.019434,18.957245 C753.019434,24.4361007 757.479633,28.895056 762.957245,28.895056 C768.436101,28.895056 772.895056,24.4361007 772.895056,18.957245 C772.895056,13.4796331 768.436101,9.01943409 762.957245,9.01943409 Z M764.487096,23.5467973 C764.487096,24.3900808 763.799285,25.076648 762.957245,25.076648 C762.115205,25.076648 761.426151,24.388837 761.426151,23.5467973 L761.426151,18.957245 C761.426151,18.1152052 762.115205,17.4273943 762.956001,17.4273943 C763.799285,17.4273943 764.487096,18.116449 764.487096,18.957245 L764.487096,23.5467973 Z M762.957245,15.8975435 C762.113961,15.8975435 761.427394,15.2097326 761.427394,14.3676928 C761.427394,13.525653 762.115205,12.8365983 762.957245,12.8365983 C763.799285,12.8365983 764.48834,13.525653 764.48834,14.366449 C764.48834,15.2097326 763.799285,15.8975435 762.958489,15.8975435 L762.957245,15.8975435 Z" id="形状"></path>
        </g>
    </g>
</svg>
