<?xml version="1.0" encoding="UTF-8"?>
<svg width="16px" height="16px" viewBox="0 0 16 16" version="1.1" xmlns="http://www.w3.org/2000/svg" xmlns:xlink="http://www.w3.org/1999/xlink">
    <title>形状结合</title>
    <g id="页面-1" stroke="none" stroke-width="1" fill="none" fill-rule="evenodd" fill-opacity="0.75">
        <g id="画板" transform="translate(-1350.000000, -549.000000)" fill="#3461EC" fill-rule="nonzero">
            <g id="编组-37备份" transform="translate(970.000000, 545.000000)">
                <g id="编组-38" transform="translate(376.000000, 0.000000)">
                    <g id="编组-3" transform="translate(4.000000, 4.000000)">
                        <path d="M15.2215909,0.0875 C15.5363636,0.0886363636 15.7579545,0.235227273 15.8863636,0.528409091 C16.0147727,0.8375 15.9613636,1.10113636 15.7284091,1.31931818 L10.1659091,6.88977273 L10.1659091,15.2738636 C10.1800452,15.5682075 10.0022335,15.8379115 9.72613636,15.9409091 C9.63647166,15.9769554 9.54094535,15.9962148 9.44431818,15.9977273 C9.25203126,16.0023122 9.06703605,15.9240928 8.93636364,15.7829545 L6.04772727,12.8897727 C5.90938259,12.7572508 5.83205128,12.5733832 5.83409091,12.3818182 L5.83409091,6.88977273 L0.271590909,1.31931818 C0.0386363636,1.10113636 -0.0147727273,0.8375 0.113636364,0.528409091 C0.242045455,0.235227273 0.463636364,0.0875 0.779545455,0.0875 L15.2215909,0.0875 Z M15.3061476,10.8787831 C15.6878921,10.8797904 15.9974005,11.1296873 15.9999171,11.4389198 C16.0011305,11.5881859 15.9283964,11.7316137 15.7979916,11.8370762 C15.6675868,11.9425387 15.4904099,12.0012218 15.3061476,11.9999807 L11.3604208,11.9999807 C10.9782341,11.9989694 10.6685442,11.7485134 10.6666667,11.4389198 C10.6691679,11.1296873 10.9786763,10.8797904 11.3604208,10.8787831 L15.3061476,10.8787831 Z M15.3061476,8.77688434 C15.6883344,8.77789567 15.9980242,9.02835165 15.9999018,9.33794528 C16.0030397,9.48758991 15.9308806,9.63182794 15.8000215,9.73748344 C15.6691625,9.84313895 15.4908681,9.9011169 15.3061476,9.8980819 L11.3604208,9.8980819 C10.9786763,9.89707464 10.6691679,9.64717776 10.6666667,9.33794528 C10.6685442,9.02835165 10.9782341,8.77789567 11.3604208,8.77688434 L15.3061476,8.77688434 Z M15.3061476,6.66666667 C15.6878921,6.66767393 15.9974005,6.91757081 15.9999018,7.22680329 C16.0030397,7.37644792 15.9308806,7.52068595 15.8000215,7.62634145 C15.6691625,7.73199696 15.4908681,7.78997491 15.3061476,7.78693991 L11.3604208,7.78693991 C10.9786763,7.78593265 10.6691679,7.53603577 10.6666667,7.22680329 C10.6691679,6.91757081 10.9786763,6.66767393 11.3604208,6.66666667 L15.3061476,6.66666667 Z" id="形状结合"></path>
                    </g>
                </g>
            </g>
        </g>
    </g>
</svg>