<?xml version="1.0" encoding="UTF-8"?>
<svg width="168px" height="168px" viewBox="0 0 168 168" version="1.1" xmlns="http://www.w3.org/2000/svg" xmlns:xlink="http://www.w3.org/1999/xlink">
    <!-- Generator: Sketch 63 (92445) - https://sketch.com -->
    <title>168x168</title>
    <desc>Created with Sketch.</desc>
    <defs>
        <linearGradient x1="21.5960413%" y1="25.0285432%" x2="71.6088755%" y2="82.5555812%" id="linearGradient-1">
            <stop stop-color="#CDD9EB" offset="0%"></stop>
            <stop stop-color="#95A7C0" offset="100%"></stop>
        </linearGradient>
        <linearGradient x1="0%" y1="50%" x2="100%" y2="50%" id="linearGradient-2">
            <stop stop-color="#324672" offset="0%"></stop>
            <stop stop-color="#697691" offset="100%"></stop>
        </linearGradient>
    </defs>
    <g id="168x168" stroke="none" stroke-width="1" fill="none" fill-rule="evenodd">
        <path d="M2.60716252,126.991501 C0.395575537,126.991501 1.11008826,123.515314 1.11008826,115.942496 L17.2716855,31.2051302 C19.6363823,21.5839969 22.5539759,16.0679939 24.7655629,16.0679939 L143.332144,16 C145.535224,16 148.742026,22.2299387 150.928094,29.6497703 L168,114.378637 C168,121.925957 168.059387,127 165.8478,127 L2.60716252,126.991501 Z" id="路径" fill="url(#linearGradient-1)" fill-rule="nonzero"></path>
        <path d="M4.95722549,152.991551 C2.7710067,152.991551 1,150.820191 1,148.133449 L1,118.858102 C1,116.17136 2.7710067,114 4.95722549,114 L164.042775,114 C166.228993,114 168,116.17136 168,118.858102 L168,148.141898 C168,150.82864 166.228993,153 164.042775,153 L4.95722549,152.991551 Z" id="路径" fill="url(#linearGradient-2)" fill-rule="nonzero"></path>
        <circle id="椭圆形" fill="#56BAFA" fill-rule="nonzero" cx="20" cy="134" r="6"></circle>
    </g>
</svg>